<?xml version="1.0" encoding="utf-8"?>
<!-- Uploaded to: SVG Repo, www.svgrepo.com, Generator: SVG Repo Mixer Tools -->
<svg fill="#fff" height="800px" width="800px" version="1.2" baseProfile="tiny" id="Child" xmlns="http://www.w3.org/2000/svg" xmlns:xlink="http://www.w3.org/1999/xlink"
	  viewBox="-63 65 128 128" xml:space="preserve">
<path d="M1,66.7c8.6,0,15.6,7,15.6,15.6S9.6,97.9,1,97.9s-15.6-7-15.6-15.6S-7.6,66.7,1,66.7z M17.3,101.8h-32.6
	c-8.2,0.4-14.8,7.2-14.8,15.5v21.5c0.1,3.2,2.7,5.7,5.8,5.7s5.8-2.6,5.8-5.7v-18c0-1.1,0.9-1.9,2-1.9s1.9,0.9,1.9,1.9v63.6
	c0,3.8,3,6.8,6.8,6.8s6.8-3,6.8-6.8v-32.1c0-1.1,0.9-1.9,1.9-1.9c1.1,0,1.9,0.9,1.9,1.9v32.1c0,3.8,3,6.8,6.8,6.8s6.8-3,6.8-6.8
	v-63.6c0-1.1,0.8-1.9,1.9-1.9s2,0.9,2,1.9v18c0.1,3.2,2.7,5.7,5.8,5.7s5.8-2.6,5.8-5.7v-21.5C32.1,109,25.6,102.2,17.3,101.8z"/>
</svg>